<svg xmlns="http://www.w3.org/2000/svg" width="800" height="800" fill="#fff" stroke="#fff" viewBox="0 0 32 32"><path d="M30.844 3.602A1.24 1.24 0 0 0 30 3.274c-.365 0-.693.156-.921.406l-.001.001L8.957 25.674l-6.076-6.036a1.25 1.25 0 1 0-1.762 1.773l7 6.953.022.015.015.021c.074.061.159.114.25.156l.007.003c.037.026.079.053.123.077l.007.003a1.216 1.216 0 0 0 .948-.014l-.008.003c.053-.031.098-.061.14-.094l-.003.002c.102-.05.189-.11.268-.179l-.001.001.015-.023.02-.014 21-22.953a1.24 1.24 0 0 0 .328-.844c0-.365-.156-.693-.406-.921l-.001-.001z"/></svg>