<svg xmlns="http://www.w3.org/2000/svg" width="163" height="267" fill="none"><g filter="url(#a)"><path fill="#B1060E" d="M17.699 162.253h122.774v37.584H17.699z"/></g><g filter="url(#b)"><path fill="#B1060E" fill-rule="evenodd" d="M1.246 259C15.492 158.949 25.428 102.11 45.797 2.01l36.784-.023c-17.64 99.183-26.525 155.807-39.663 252.997-14.92.838-28.934 2.206-41.672 4.016Z" clip-rule="evenodd"/><path fill="#B0060E" d="M45.797 2.01v-.5h-.409l-.081.4.49.1ZM1.247 259l-.496-.07-.094.659.66-.094-.07-.495ZM82.58 1.987l.492.088.105-.588h-.597v.5ZM42.918 254.984l.028.499.412-.023.055-.409-.495-.067ZM45.307 1.911C24.937 102.019 14.999 158.868.751 258.93l.99.14C15.986 159.03 25.921 102.2 46.287 2.11l-.98-.2Zm37.274-.424-36.784.023v1l36.785-.023-.001-1ZM43.413 255.051c13.138-97.183 22.02-153.8 39.66-252.976L82.09 1.9c-17.642 99.189-26.527 155.82-39.667 253.017l.991.134Zm-42.097 4.444c12.723-1.808 26.722-3.175 41.63-4.012l-.056-.998c-14.933.838-28.96 2.208-41.714 4.02l.14.99Z"/></g><g fill="#E60814" filter="url(#c)"><path fill-rule="evenodd" d="M128.48 78.814c-4.532-23.524-9.338-48.473-14.453-76.806h-40.97c17.231 98.687 26.763 154.798 39.732 251.974 16.05.773 31.19 2.148 44.949 4.018-8.419-71.002-17.99-120.69-29.258-179.186Z" clip-rule="evenodd"/><path d="m114.027 2.008.492-.089-.074-.41h-.418v.5Zm14.453 76.806-.491.095.491-.095ZM73.057 2.008v-.5h-.595l.102.586.493-.086Zm39.732 251.974-.496.066.055.413.417.02.024-.499ZM157.738 258l-.067.495.64.087-.076-.641-.497.059ZM113.535 2.097c5.116 28.336 9.922 53.287 14.454 76.812l.982-.19c-4.532-23.524-9.337-48.47-14.452-76.8l-.984.178Zm-40.478.411h40.97v-1h-40.97v1Zm40.227 251.408C100.314 156.73 90.781 100.612 73.549 1.922l-.985.172c17.232 98.685 26.761 154.788 39.729 251.954l.991-.132Zm-.519.565c16.037.773 31.162 2.146 44.906 4.014l.135-.99c-13.775-1.873-28.93-3.249-44.993-4.023l-.048.999Zm15.224-175.572c11.267 58.494 20.836 108.167 29.253 179.15l.993-.118c-8.422-71.022-17.996-120.725-29.264-179.222l-.982.19Z"/></g><defs><filter id="a" width="130.774" height="45.584" x="13.699" y="162.253" color-interpolation-filters="sRGB" filterUnits="userSpaceOnUse"><feFlood flood-opacity="0" result="BackgroundImageFix"/><feColorMatrix in="SourceAlpha" result="hardAlpha" values="0 0 0 0 0 0 0 0 0 0 0 0 0 0 0 0 0 0 127 0"/><feOffset dy="4"/><feGaussianBlur stdDeviation="2"/><feComposite in2="hardAlpha" operator="out"/><feColorMatrix values="0 0 0 0 0 0 0 0 0 0 0 0 0 0 0 0 0 0 0.25 0"/><feBlend in2="BackgroundImageFix" result="effect1_dropShadow_2_54"/><feBlend in="SourceGraphic" in2="effect1_dropShadow_2_54" result="shape"/></filter><filter id="b" width="90.521" height="266.102" x="-3.343" y="-2.513" color-interpolation-filters="sRGB" filterUnits="userSpaceOnUse"><feFlood flood-opacity="0" result="BackgroundImageFix"/><feGaussianBlur in="BackgroundImageFix" stdDeviation="2"/><feComposite in2="SourceAlpha" operator="in" result="effect1_backgroundBlur_2_54"/><feBlend in="SourceGraphic" in2="effect1_backgroundBlur_2_54" result="shape"/></filter><filter id="c" width="93.849" height="265.074" x="68.462" y="1.508" color-interpolation-filters="sRGB" filterUnits="userSpaceOnUse"><feFlood flood-opacity="0" result="BackgroundImageFix"/><feColorMatrix in="SourceAlpha" result="hardAlpha" values="0 0 0 0 0 0 0 0 0 0 0 0 0 0 0 0 0 0 127 0"/><feOffset dy="4"/><feGaussianBlur stdDeviation="2"/><feComposite in2="hardAlpha" operator="out"/><feColorMatrix values="0 0 0 0 0 0 0 0 0 0 0 0 0 0 0 0 0 0 0.25 0"/><feBlend in2="BackgroundImageFix" result="effect1_dropShadow_2_54"/><feColorMatrix in="SourceAlpha" result="hardAlpha" values="0 0 0 0 0 0 0 0 0 0 0 0 0 0 0 0 0 0 127 0"/><feOffset dy="4"/><feGaussianBlur stdDeviation="2"/><feComposite in2="hardAlpha" operator="out"/><feColorMatrix values="0 0 0 0 0 0 0 0 0 0 0 0 0 0 0 0 0 0 0.25 0"/><feBlend in2="effect1_dropShadow_2_54" result="effect2_dropShadow_2_54"/><feColorMatrix in="SourceAlpha" result="hardAlpha" values="0 0 0 0 0 0 0 0 0 0 0 0 0 0 0 0 0 0 127 0"/><feOffset dy="4"/><feGaussianBlur stdDeviation="2"/><feComposite in2="hardAlpha" operator="out"/><feColorMatrix values="0 0 0 0 0 0 0 0 0 0 0 0 0 0 0 0 0 0 0.25 0"/><feBlend in2="effect2_dropShadow_2_54" result="effect3_dropShadow_2_54"/><feBlend in="SourceGraphic" in2="effect3_dropShadow_2_54" result="shape"/></filter></defs></svg>