<svg width="754" height="800" viewBox="0 0 754 800" fill="none" xmlns="http://www.w3.org/2000/svg">
<path fill-rule="evenodd" clip-rule="evenodd" d="M659.157 470.588H612.098V517.647C638.028 517.647 659.157 538.73 659.157 564.706C659.157 590.682 638.028 611.765 612.098 611.765H565.039V658.823C590.968 658.823 612.098 679.906 612.098 705.883C612.098 731.859 590.969 752.941 565.04 752.941H165.04C100.192 752.941 47.3921 700.188 47.3921 635.294V376.47H91.8159C150.216 376.47 206.122 352.47 245.274 310.73C301.369 250.87 367.533 158.023 375.91 47.0583H391.063C412.098 47.0583 431.91 56.3763 445.369 72.6583C458.969 89.1292 464.475 110.635 460.428 131.623C450.969 181.035 435.345 229.976 414.075 277.082C404.146 298.964 406.028 324 418.969 344.14C432.051 364.376 454.263 376.47 478.404 376.47H659.157C685.087 376.47 706.216 397.552 706.216 423.529C706.216 449.505 685.087 470.588 659.157 470.588M753.275 423.529C753.275 371.623 711.063 329.411 659.157 329.411H478.404C470.216 329.411 462.969 325.505 458.546 318.635C454.216 311.906 453.604 303.811 456.946 296.47C479.722 246.023 496.475 193.505 506.687 140.423C513.322 105.6 504.24 69.9762 481.651 42.6821C459.204 15.5767 426.169 0 391.063 0H329.745V23.5292C329.745 129.553 265.133 220.706 210.969 278.541C180.663 310.823 137.227 329.412 91.8159 329.412H0.333374V635.294C0.333374 726.118 74.2159 800 165.039 800H565.039C616.945 800 659.157 757.788 659.157 705.883C659.157 686.541 653.275 668.517 643.251 653.553C679.863 640.659 706.216 605.694 706.216 564.706C706.216 545.365 700.333 527.341 690.31 512.377C726.922 499.482 753.275 464.517 753.275 423.53" fill="#198754"/>
<path d="M659.157 470.588H612.098V517.647C638.028 517.647 659.157 538.73 659.157 564.706C659.157 590.682 638.028 611.765 612.098 611.765H565.039V658.823C590.968 658.823 612.098 679.906 612.098 705.883C612.098 731.859 590.969 752.941 565.04 752.941H165.04C100.192 752.941 47.3921 700.188 47.3921 635.294V376.47H91.8159C150.216 376.47 206.122 352.47 245.274 310.73C301.369 250.87 367.533 158.023 375.91 47.0583H391.063C412.098 47.0583 431.91 56.3763 445.369 72.6583C458.969 89.1292 464.475 110.635 460.428 131.623C450.969 181.035 435.345 229.976 414.075 277.082C404.146 298.964 406.028 324 418.969 344.14C432.051 364.376 454.263 376.47 478.404 376.47H659.157C685.087 376.47 706.216 397.552 706.216 423.529C706.216 449.505 685.087 470.588 659.157 470.588M753.275 423.529C753.275 371.623 711.063 329.411 659.157 329.411H478.404C470.216 329.411 462.969 325.505 458.546 318.635C454.216 311.906 453.604 303.811 456.946 296.47C479.722 246.023 496.475 193.505 506.687 140.423C513.322 105.6 504.24 69.9762 481.651 42.6821C459.204 15.5767 426.169 0 391.063 0H329.745V23.5292C329.745 129.553 265.133 220.706 210.969 278.541C180.663 310.823 137.227 329.412 91.8159 329.412H0.333374V635.294C0.333374 726.118 74.2159 800 165.039 800H565.039C616.945 800 659.157 757.788 659.157 705.883C659.157 686.541 653.275 668.517 643.251 653.553C679.863 640.659 706.216 605.694 706.216 564.706C706.216 545.365 700.333 527.341 690.31 512.377C726.922 499.482 753.275 464.517 753.275 423.53" stroke="#B2B2B3" stroke-width="0.416667"/>
</svg>
