<svg xmlns="http://www.w3.org/2000/svg" width="754" height="800" fill="none"><path fill="#198754" fill-rule="evenodd" d="M659.157 470.588h-47.059v47.059c25.93 0 47.059 21.083 47.059 47.059s-21.129 47.059-47.059 47.059h-47.059v47.058c25.929 0 47.059 21.083 47.059 47.06 0 25.976-21.129 47.058-47.058 47.058h-400c-64.848 0-117.648-52.753-117.648-117.647V376.47h44.424c58.4 0 114.306-24 153.458-65.74 56.095-59.86 122.259-152.707 130.636-263.672h15.153c21.035 0 40.847 9.318 54.306 25.6 13.6 16.471 19.106 37.977 15.059 58.965-9.459 49.412-25.083 98.353-46.353 145.459-9.929 21.882-8.047 46.918 4.894 67.058 13.082 20.236 35.294 32.33 59.435 32.33h180.753c25.93 0 47.059 21.082 47.059 47.059 0 25.976-21.129 47.059-47.059 47.059m94.118-47.059c0-51.906-42.212-94.118-94.118-94.118H478.404c-8.188 0-15.435-3.906-19.858-10.776-4.33-6.729-4.942-14.824-1.6-22.165 22.776-50.447 39.529-102.965 49.741-156.047 6.635-34.823-2.447-70.447-25.036-97.74C459.204 15.576 426.169 0 391.063 0h-61.318v23.53c0 106.023-64.612 197.176-118.776 255.011-30.306 32.282-73.742 50.871-119.153 50.871H.333v305.882C.333 726.118 74.216 800 165.04 800h400c51.906 0 94.118-42.212 94.118-94.117 0-19.342-5.882-37.366-15.906-52.33 36.612-12.894 62.965-47.859 62.965-88.847 0-19.341-5.883-37.365-15.906-52.329 36.612-12.895 62.965-47.86 62.965-88.847" clip-rule="evenodd"/><path stroke="#B2B2B3" stroke-width=".417" d="M659.157 470.588h-47.059v47.059c25.93 0 47.059 21.083 47.059 47.059s-21.129 47.059-47.059 47.059h-47.059v47.058c25.929 0 47.059 21.083 47.059 47.06 0 25.976-21.129 47.058-47.058 47.058h-400c-64.848 0-117.648-52.753-117.648-117.647V376.47h44.424c58.4 0 114.306-24 153.458-65.74 56.095-59.86 122.259-152.707 130.636-263.672h15.153c21.035 0 40.847 9.318 54.306 25.6 13.6 16.471 19.106 37.977 15.059 58.965-9.459 49.412-25.083 98.353-46.353 145.459-9.929 21.882-8.047 46.918 4.894 67.058 13.082 20.236 35.294 32.33 59.435 32.33h180.753c25.93 0 47.059 21.082 47.059 47.059 0 25.976-21.129 47.059-47.059 47.059m94.118-47.059c0-51.906-42.212-94.118-94.118-94.118H478.404c-8.188 0-15.435-3.906-19.858-10.776-4.33-6.729-4.942-14.824-1.6-22.165 22.776-50.447 39.529-102.965 49.741-156.047 6.635-34.823-2.447-70.447-25.036-97.74C459.204 15.576 426.169 0 391.063 0h-61.318v23.53c0 106.023-64.612 197.176-118.776 255.011-30.306 32.282-73.742 50.871-119.153 50.871H.333v305.882C.333 726.118 74.216 800 165.04 800h400c51.906 0 94.118-42.212 94.118-94.117 0-19.342-5.882-37.366-15.906-52.33 36.612-12.894 62.965-47.859 62.965-88.847 0-19.341-5.883-37.365-15.906-52.329 36.612-12.895 62.965-47.86 62.965-88.847"/></svg>