<svg xmlns="http://www.w3.org/2000/svg" xml:space="preserve" id="_x32_" width="800" height="800" fill="#000" version="1.1" viewBox="0 0 512 512"><g id="SVGRepo_iconCarrier"><style>.st0{fill:#fff}</style><path d="M331.736 165.752c-8.792-8.8-23.054-8.784-31.854 0l-13.571 13.587 46.367 46.359 13.578-13.57c8.784-8.801 8.784-23.071 0-31.872l-14.52-14.504z" class="st0"/><path d="M256 0C114.84 0 0 114.831 0 256c0 141.152 114.84 256 256 256 141.168 0 256-114.848 256-256C512 114.831 397.168 0 256 0zm0 466.051c-115.998 0-210.051-94.053-210.051-210.051 0-115.998 94.053-210.06 210.051-210.06 115.998 0 210.051 94.062 210.051 210.059 0 115.999-94.053 210.052-210.051 210.052z" class="st0"/><path d="M159.164 306.485v46.36h46.367l105.821-105.823-46.359-46.358z" class="st0"/></g></svg>